Coordinates
version=1
nRows=5
nColumns=42
inDegrees=yes

Units are S.I. units (second, meters, Newtons, ...)
If the header above contains a line with 'inDegrees', this indicates whether rotational values are in degrees (yes) or radians (no).

endheader
time	pelvis_tilt	pelvis_list	pelvis_rotation	pelvis_tx	pelvis_ty	pelvis_tz	hip_flexion_r	hip_adduction_r	hip_rotation_r	knee_angle_r	knee_adduction_r	knee_angle_r_beta	ankle_angle_r	subtalar_angle_r	mtp_angle_r	hip_flexion_l	hip_adduction_l	hip_rotation_l	knee_angle_l	knee_adduction_l	knee_angle_l_beta	ankle_angle_l	subtalar_angle_l	mtp_angle_l	lumbar_extension	lumbar_bending	lumbar_rotation	arm_flex_r	arm_add_r	arm_rot_r	elbow_flex_r	pro_sup_r	wrist_flex_r	wrist_dev_r	arm_flex_l	arm_add_l	arm_rot_l	elbow_flex_l	pro_sup_l	wrist_flex_l	wrist_dev_l
      1.42000000	      9.70693576	      9.52526403	     -0.57369744	     -0.98639305	      0.89552435	      0.23991977	     30.78826290	    -12.54642261	    -15.55887967	     38.84869531	     -9.42879469	      0.67803764	     10.66670544	     13.90404203	     -7.65671406	    -18.80536202	     14.83837821	    -20.24248326	     16.46365813	    -12.33647358	      0.28734504	     28.90598566	     19.61229455	     -7.65671406	    -41.07935901	     -6.45525570	     -5.42781265	      9.12603295	     -7.74538999	      5.36760265	     35.96350542	     90.00000001	      0.00000000	      0.00000000	     -4.68084834	    -14.67900281	     16.26533105	     42.83310573	     90.00000001	      0.00000000	      0.00000000
      1.43000000	      9.83855347	      9.38253276	     -0.63581898	     -0.97754135	      0.89593168	      0.24161325	     30.46938144	    -12.38626905	    -14.45726454	     40.07660287	     -8.78772429	      0.69946867	     10.56932108	     12.07369649	     -7.64717952	    -19.23801737	     14.47809843	    -19.84449081	     17.20393146	    -12.36949545	      0.30026525	     28.48046418	     18.95973959	     -7.64717952	    -41.09383933	     -6.12733704	     -5.24308061	      9.18952513	     -7.83963588	      5.47151833	     35.73273753	     90.00000001	      0.00000000	      0.00000000	     -4.82983223	    -14.32666353	     15.70995142	     42.49019567	     90.00000001	      0.00000000	      0.00000000
      1.44000000	     10.06481732	      9.20505549	     -0.71034945	     -0.96858703	      0.89673053	      0.24349956	     30.05928009	    -12.25299699	    -14.17345037	     41.22197799	     -8.53712793	      0.71945924	     10.69919580	     11.84425366	     -7.64589496	    -19.75103608	     13.97631571	    -19.66246809	     17.96408272	    -12.31081052	      0.31353239	     28.09912926	     18.89625836	     -7.64589496	    -41.20533788	     -5.78493588	     -5.03461269	      9.22085598	     -7.94815491	      5.47396655	     35.67717913	     90.00000001	      0.00000000	      0.00000000	     -4.99535940	    -14.12772390	     15.67982336	     42.39938672	     90.00000001	      0.00000000	      0.00000000
      1.45000000	     10.08850654	      9.04073589	     -0.83310609	     -0.95984521	      0.89751718	      0.24557483	     29.72154098	    -11.91455645	    -12.15076992	     42.30477266	     -7.35219662	      0.73835757	     11.17323753	      8.91391752	     -7.63878661	    -19.83315908	     13.41928728	    -19.87354262	     19.02988477	    -12.26481455	      0.33213415	     27.48430388	     18.56320473	     -7.63878661	    -41.11466666	     -5.51441632	     -4.79683168	      9.35495410	     -8.00865981	      5.77140753	     35.19230396	     90.00000001	      0.00000000	      0.00000000	     -5.07076303	    -13.69954139	     14.96630669	     41.81406750	     90.00000001	      0.00000000	      0.00000000
      1.46000000	     10.24505551	      8.86828963	     -0.94564294	     -0.95092112	      0.89870929	      0.24773873	     29.28115589	    -11.65084638	    -11.87952418	     43.17866821	     -7.21626986	      0.75360993	     11.29574502	      8.78275008	     -7.63794314	    -20.23371896	     12.94819820	    -19.65401985	     19.75976310	    -12.24854220	      0.34487293	     27.05462111	     18.59248077	     -7.63794314	    -41.15479229	     -5.23389391	     -4.59586056	      9.37105263	     -8.05269698	      5.77660347	     35.18943146	     90.00000001	      0.00000000	      0.00000000	     -5.30680478	    -13.52226256	     14.94325456	     41.76317579	     90.00000001	      0.00000000	      0.00000000
